<svg width="226" height="32" viewBox="0 0 226 32" fill="none" xmlns="http://www.w3.org/2000/svg">
<path d="M79 13C78 12.619 76 11.2857 76 9H78C77.2 9.45714 78.3333 11.8571 79 13Z" fill="black"/>
<rect x="74" width="152" height="4" fill="#D9D9D9"/>
<path d="M72.5 11.5C72.5 10.8333 71.8 9 71 9L73.5 8.5C72.8333 9.5 72.4167 11 72.5 11.5ZM72.5 11.5C72.6667 12.5 73.2 14.5 74 14.5C74.8 14.5 78 14.5 79.5 14.5C80.4711 14.2572 82.0964 13.3602 82.7533 11.5M72.5 11.5C73 11.5 73.1667 11.5 72.5 11.5ZM82.7533 11.5C82.9984 10.8061 83.1087 9.47807 83 8.5H81.5C82.1689 9.33333 83.356 11.1 82.7533 11.5Z" stroke="#D9D9D9"/>
<path d="M64 3C76 1.5 127.5 2 127.5 2V9C127.5 9 77 7.5 64 11C51 14.5 0.5 34.5 0.5 31V7.5C0.5 7.5 20 9 33 9C46 9 52 4.5 64 3Z" fill="#6E3B00"/>
</svg>
