<svg width="22" height="56" viewBox="0 0 22 56" fill="none" xmlns="http://www.w3.org/2000/svg">
<path d="M1.63672 0.0426279C3.03435 -0.457426 5.6684 3.50496 7.51953 8.89321C8.76581 12.5209 9.3369 15.87 9.15234 17.8239C9.61416 17.7344 10.0908 17.6862 10.5781 17.6862C11.2253 17.6862 11.8534 17.7691 12.4531 17.9245C12.2384 15.9862 12.8103 12.5836 14.0781 8.89321C14.1162 8.78245 14.1576 8.67267 14.1963 8.56314H19.8066C21.0565 13.0218 21.1693 16.6503 19.9609 17.0836C19.2912 17.323 18.3415 16.5358 17.3271 15.0602C16.4434 16.8246 15.527 18.1891 14.7246 18.943C16.8021 20.3269 18.1758 22.7194 18.1758 25.4401C18.1757 27.5491 17.3485 29.4592 16.0098 30.8571C19.0918 33.2219 21.1553 37.5363 21.1553 42.4684C21.1553 46.4352 19.8211 50.0031 17.6953 52.4782C19.0233 52.7445 19.9639 53.4033 19.9639 54.1754C19.9639 55.1831 18.3624 55.9997 16.3877 55.9997C15.3296 55.9996 14.3802 55.763 13.7256 55.3903C12.7313 55.7862 11.6743 55.9996 10.5781 55.9997C9.5464 55.9997 8.54918 55.81 7.60645 55.4577C6.95837 55.7918 6.05956 55.9997 5.06543 55.9997C3.0907 55.9997 1.49025 55.1831 1.49023 54.1754C1.49023 53.4524 2.31451 52.8291 3.50977 52.5338C1.35569 50.0568 9.05069e-06 46.4654 0 42.4684C0 37.5367 2.06292 33.222 5.14453 30.8571C3.80617 29.4593 2.97953 27.5488 2.97949 25.4401C2.97949 22.6053 4.47027 20.1255 6.69531 18.7731C5.34571 17.3868 3.71973 14.3773 2.45801 10.7047C0.606911 5.3165 0.239168 0.542849 1.63672 0.0426279Z" fill="#D9D9D9"/>
<ellipse cx="8.641" cy="22.8553" rx="0.595931" ry="0.608158" fill="black"/>
<ellipse cx="13.1105" cy="22.8553" rx="0.595931" ry="0.608158" fill="black"/>
<path d="M12.2166 25.592C11.0247 26.2001 10.7268 26.2001 9.5349 25.592L10.8757 27.4165L12.2166 25.592Z" fill="#FB5EF9"/>
</svg>
