<svg width="39" height="39" viewBox="0 0 39 39" fill="none" xmlns="http://www.w3.org/2000/svg">
<path d="M19.5 0C30.2696 0 39 8.73045 39 19.5C39 30.2696 30.2696 39 19.5 39C8.73045 39 0 30.2696 0 19.5C0 8.73045 8.73045 0 19.5 0ZM19.5 3C10.3873 3 3 10.3873 3 19.5C3 28.6127 10.3873 36 19.5 36C28.6127 36 36 28.6127 36 19.5C36 10.3873 28.6127 3 19.5 3ZM16.667 4.97461C17.4479 4.19432 18.7142 4.1942 19.4951 4.97461C20.276 5.75552 20.2758 7.02263 19.4951 7.80371L10.1816 17.1172H34.4121V21.1172H10.1816L19.4951 30.4307C20.276 31.2116 20.2758 32.4787 19.4951 33.2598C18.7141 34.0404 17.4479 34.0405 16.667 33.2598L3.93945 20.5312C3.15846 19.7502 3.15842 18.4842 3.93945 17.7031L16.667 4.97461Z" fill="#615686"/>
</svg>
